<svg xmlns="http://www.w3.org/2000/svg" viewBox="0 0 127.78 351.21"><g style="isolation:isolate"><g style="mix-blend-mode:multiply" data-name="Layer 2"><path d="M20.07 340.73a529.12 529.12 0 0119.22-123.32c2.34-8.31-10.54-12-12.88-3.66A545.17 545.17 0 006.68 340.62c-.34 8.63 13.05 8.73 13.39.11z" fill="#fcb12b"/><circle cx="14.5" cy="336.71" r="14.5" transform="rotate(-1.76 14.677 337.542)" fill="#fcb12b"/><path d="M107.78 340.61a529.1 529.1 0 00-21.34-123c-2.49-8.27 10.33-12.15 12.81-3.88a545.19 545.19 0 0121.91 126.51c.49 8.65-12.89 8.99-13.38.37z" fill="#ffc248"/><circle cx="113.28" cy="336.5" r="14.5" transform="rotate(-89.23 113.262 336.49)" fill="#ffc248"/><path d="M53.13 35.55c-9.9 1-19.36 4.46-23.47 13.07-4.3 9-3 20-1 29.58 4.23 20.37 14.23 45.79 27 62.14 5 6.38-4.9 6.38-9.87 0-23.84-30.56-58.65-111.05 5.63-117.21 8.03-.78 9.79 11.65 1.71 12.42z" fill="#fcb12b"/><path d="M39.62 20.34A17.55 17.55 0 0153.83 0L60 34.56a17.55 17.55 0 01-20.38-14.22z" fill="#fcb12b"/><path d="M75.07 35.56c9.86 1.31 19.19 5.15 23 13.9 4 9.16 2.29 20.07 0 29.6-5 20.2-15.71 45.41-29 61.29-5.2 6.2 4.38 6.2 9.58 0 24.89-29.69 62.68-108.67-1.34-117.15-8.08-1.06-10.31 11.29-2.24 12.36z" fill="#ffde83"/><path d="M89.12 20.84A17.55 17.55 0 0075.64 0l-7.36 34.32a17.55 17.55 0 0020.84-13.48z" fill="#ffde83"/><path fill="#ff2727" d="M21.32 140.34h81.7l-11.58 95.97H32.9l-11.58-95.97z"/><path fill="#e82121" d="M62.78 236.31v-95.97H21.32l11.58 95.97h29.88z"/><path d="M117.18 228.8a54.26 54.26 0 11-54.41-54.26 54.39 54.39 0 0154.41 54.26z" fill="#ffc248"/><path d="M62.78 174.55c-.33 0-.33 108.52 0 108.52a54.26 54.26 0 100-108.52z" fill="#ffde83"/><path d="M51.43 233.29a7.55 7.55 0 10-14.76 0zm37.75 0a7.55 7.55 0 10-14.76 0zm-11.65 16.99c-4 2.89-9.41 4.34-14.76 4.45a25.57 25.57 0 01-14.46-4.45c-2.06-1.49-4 1.93-2 3.4a28.82 28.82 0 0016.45 5c6-.08 12.15-1.68 16.74-5 2.05-1.47.09-4.89-1.97-3.4z" fill="#562f1c"/><g opacity=".4" fill="#f2593b"><circle cx="28.79" cy="250.1" r="8.49"/><circle cx="97.06" cy="250.1" r="8.49"/></g><path d="M120.05 215.94c-5.54-26-29.17-45.51-57.28-45.51a58 58 0 00-57 45.51z" fill="#562f1c"/><path d="M120.05 215.94c-5.54-26-29.17-45.51-57.28-45.51-.15 0 0 21.29 0 45.51zm-16.38-75.6l7.07-36.89H66.35l-3.57 14.47v22.42h40.89z" fill="#723922"/><path fill="#562f1c" d="M21.32 140.34l-7.08-36.89h43.43l5.11 14.47v22.42H21.32z"/></g></g></svg>