<svg xmlns="http://www.w3.org/2000/svg" viewBox="0 0 228.87 303.03"><g style="isolation:isolate"><g style="mix-blend-mode:multiply" data-name="Layer 2"><path d="M211.41 62.55c-16.73 29.61-45.15 53.8-80.1 56.63-7.61.62-7.66 12.54 0 11.92 39.24-3.18 71.45-29 90.39-62.53 3.79-6.7-6.51-12.7-10.29-6.02z" fill="#af8b51"/><circle cx="215.09" cy="65.6" r="13.77" transform="matrix(.3 -.95 .95 .3 87.46 250.74)" fill="#af8b51"/><path d="M17.46 62.55c16.73 29.61 45.15 53.8 80.1 56.63 7.6.62 7.66 12.54 0 11.92-39.24-3.18-71.45-29-90.39-62.53-3.79-6.7 6.51-12.7 10.29-6.02z" fill="#96712f"/><circle cx="13.78" cy="65.6" r="13.77" transform="rotate(-17.62 13.784 65.598)" fill="#96712f"/><path d="M200.71 274.91c-8 5.1-17.07 8-25.2 4-8.5-4.21-14-13.16-18.12-21.5a138.35 138.35 0 01-13.72-58.95c0-7.68-11.95-7.69-11.92 0 .15 36.79 23.32 119.83 75 86.73 6.43-4.12.45-14.44-6.04-10.28z" fill="#af8b51"/><path d="M199.55 294.2a16.67 16.67 0 0022.56 6.86l-15.7-29.41a16.67 16.67 0 00-6.86 22.55z" fill="#af8b51"/><path d="M31.24 274c8 5.1 17.07 8 25.2 4 8.5-4.21 14-13.16 18.11-21.5a138.32 138.32 0 0013.72-58.95c0-7.68 11.95-7.69 11.92 0-.15 36.79-23.32 119.83-75 86.73-6.41-4.13-.44-14.44 6.05-10.28z" fill="#96712f"/><path d="M32.4 293.29a16.67 16.67 0 01-22.55 6.86l15.7-29.41a16.67 16.67 0 016.85 22.55z" fill="#96712f"/><path fill="#3f8980" d="M153.31 197.25H75.7l11-90.74h55.61l11 90.74z"/><path fill="#52c1ae" d="M114.68 106.51v90.74h38.63l-11-90.74h-27.63z"/><path d="M166.18 64.27a51.54 51.54 0 11-51.5-51.54 51.51 51.51 0 0151.5 51.54z" fill="#96712f"/><path d="M114.68 12.73c-.31 0-.31 103.08 0 103.08a51.54 51.54 0 000-103.08z" fill="#af8b51"/><path d="M168.6 47.93a54.35 54.35 0 00-107.93 0z" fill="#3f8980"/><path d="M168.6 47.93A54.31 54.31 0 00114.68 0c-.15 0 0 23.05 0 47.93z" fill="#52c1ae"/><circle cx="96.72" cy="67.01" r="7.17" fill="#562f1c"/><circle cx="132.57" cy="67.01" r="7.17" fill="#562f1c"/><path d="M128.52 84.67a24.6 24.6 0 01-13.84 4.23 24.86 24.86 0 01-13.91-4.23c-2-1.41-3.82 1.83-1.89 3.23a28 28 0 0015.8 4.75 27.71 27.71 0 0015.72-4.75c1.94-1.4.08-4.65-1.88-3.23z" fill="#562f1c"/><g opacity=".4" fill="#f2593b"><circle cx="82.22" cy="84.49" r="8.07"/><circle cx="147.06" cy="84.49" r="8.07"/></g><path fill="#3f8980" d="M60.67 46.65h138.72v8.91H60.67z"/><path fill="#562f1c" d="M75.7 197.25l-6.73 35.14h42.17l3.54-13.75v-21.39H75.7z"/><path fill="#723922" d="M153.92 197.25l6.72 35.14h-41.25l-4.71-13.75v-21.39h39.24z"/></g></g></svg>