<svg xmlns="http://www.w3.org/2000/svg" viewBox="0 0 288.06 341.97"><defs><clipPath id="a"><path fill="none" d="M151.83 125.81l22.74 7.73 22.49 7.64-.05 128.55-61.6-20.94-61.87-21.03 78.29-101.95z"/></clipPath></defs><g style="isolation:isolate"><g style="mix-blend-mode:multiply" data-name="Layer 2"><path d="M180.63 20.42c-5.38 15.83 3.47 33.15 19.3 38.53a29.93 29.93 0 0038-19A29.93 29.93 0 00219.4 1.63c-15.83-5.38-33.4 2.96-38.77 18.79z" fill="#723922"/><path d="M219.4 1.63c.18.06-19.3 57.37-19.48 57.37-15.83-5.38-24.68-22.7-19.3-38.53S203.57-3.75 219.4 1.63z" fill="#562f1c"/><path d="M62.68 320.93c.67-3.92 1.4-7.82 2.24-11.69 22.65 3.95 46.44 2.39 66.55-9.58 21.39-12.74 35.62-39.7 31.94-64.5-1.14-7.67 10.67-10.1 11.81-2.41 4.27 28.85-10.48 59-34.45 75.16-22.46 15.18-50.82 17.94-77 13.29a8.57 8.57 0 01-1.09-.27z" fill="#ffde83"/><path d="M75.65 328.24a17 17 0 01-20 13.41l6.6-33.43a17 17 0 0113.4 20.02z" fill="#ffde83"/><path d="M15.32 245.07l2.37-4.18c15.16 8.38 32.08 12.6 49.39 8.88 18.21-3.92 33.72-16.34 45.77-30 2.17-2.46 5.4-3.62 8.37-1.6 2.46 1.67 3.77 5.9 1.6 8.37-14.35 16.31-31.79 30.1-53.34 35.08-20 4.61-40.15-.57-57.74-10.23z" fill="#ffc248"/><path d="M22.5 262.16a16.67 16.67 0 01-22.5 7l15.48-29.53a16.67 16.67 0 017.02 22.53z" fill="#ffc248"/><path d="M197.83 156.39c28.5.39 64.09-13.64 72.56-43.49 2.12-7.47 13.68-4 11.56 3.44-10 35.11-50.47 52.56-84.35 52.1-7.78-.11-7.53-12.16.23-12.05z" fill="#ffde83"/><circle cx="274.28" cy="122.62" r="13.77" transform="rotate(-88.85 274.283 122.623)" fill="#ffde83"/><path d="M141.95 137.39c-22.84-17.06-42.51-49.86-31-78.69 2.87-7.22-8.38-11.54-11.26-4.32-13.5 33.91 8 72.43 35.14 92.71 6.17 4.66 13.34-5.09 7.12-9.7z" fill="#ffc248"/><circle cx="101.91" cy="64.03" r="13.77" transform="rotate(-53.61 101.898 64.03)" fill="#ffc248"/><path d="M183.08 251.35a49 49 0 01-53.89 15.71 50.08 50.08 0 01-34-45.57z" fill="#ddd3c7"/><path d="M139.56 236.56c-5.76 16.86-10.26 30.54-10.37 30.51a50.08 50.08 0 01-34-45.57z" fill="#c4bbad"/><path fill="#52c1ae" d="M197.06 141.18l-22.49-7.64-39.16 115.25 61.6 20.94.05-128.55z"/><path fill="#3f8980" d="M151.83 125.81l22.74 7.73-39.16 115.25-61.87-21.03 78.29-101.95z"/><g clip-path="url(#a)"><circle cx="218.55" cy="164.91" r="7.75" transform="rotate(-71.23 218.537 164.908)" fill="#c4bbad"/><circle cx="188.66" cy="154.75" r="7.75" transform="rotate(-71.23 188.668 154.75)" fill="#f4eee9"/><circle cx="158.77" cy="144.59" r="7.75" transform="rotate(-71.23 158.768 144.59)" fill="#c4bbad"/><circle cx="128.89" cy="134.44" r="7.75" transform="rotate(-71.23 128.875 134.436)" fill="#c4bbad"/><circle cx="99" cy="124.28" r="7.75" transform="rotate(-71.23 99.006 124.278)" fill="#c4bbad"/><circle cx="222.39" cy="190.16" r="7.75" transform="rotate(-71.23 222.396 190.159)" fill="#c4bbad"/><circle cx="192.51" cy="180" r="7.75" transform="rotate(-71.23 192.508 179.998)" fill="#f4eee9"/><path d="M155.28 167.35a7.45 7.45 0 004.5 9.71 7.76 7.76 0 105-14.67 7.45 7.45 0 00-9.5 4.96z" fill="#f4eee9"/><circle cx="132.73" cy="159.69" r="7.75" transform="rotate(-71.23 132.735 159.687)" fill="#c4bbad"/><circle cx="102.85" cy="149.53" r="7.75" transform="rotate(-71.23 102.854 149.53)" fill="#c4bbad"/><circle cx="207.06" cy="235.26" r="7.75" transform="rotate(-71.23 207.07 235.263)" fill="#c4bbad"/><circle cx="177.18" cy="225.1" r="7.75" transform="rotate(-71.23 177.182 225.102)" fill="#f4eee9"/><path d="M140 212.45a7.45 7.45 0 004.5 9.71 7.76 7.76 0 105-14.67 7.45 7.45 0 00-9.5 4.96z" fill="#f4eee9"/><circle cx="117.41" cy="204.79" r="7.75" transform="rotate(-71.23 117.402 204.786)" fill="#c4bbad"/><circle cx="87.52" cy="194.63" r="7.75" transform="rotate(-71.23 87.52 194.63)" fill="#c4bbad"/><circle cx="203.59" cy="208.92" r="7.75" transform="rotate(-71.23 203.578 208.924)" fill="#c4bbad"/><circle cx="173.7" cy="198.76" r="7.75" transform="rotate(-71.23 173.702 198.76)" fill="#f4eee9"/><circle cx="143.82" cy="188.61" r="7.75" transform="rotate(-71.23 143.81 188.606)" fill="#c4bbad"/><circle cx="113.93" cy="178.45" r="7.75" transform="rotate(-71.3 113.632 177.852)" fill="#c4bbad"/><circle cx="84.04" cy="168.29" r="7.75" transform="rotate(-71.23 84.04 168.289)" fill="#c4bbad"/><circle cx="188.72" cy="252.66" r="7.75" transform="rotate(-71.3 188.208 251.812)" fill="#f4eee9"/><circle cx="158.84" cy="242.51" r="7.75" transform="rotate(-71.23 158.834 242.503)" fill="#f4eee9"/><circle cx="128.95" cy="232.35" r="7.75" transform="rotate(-71.23 128.96 232.352)" fill="#c4bbad"/><circle cx="99.06" cy="222.19" r="7.75" transform="rotate(-71.23 99.06 222.193)" fill="#c4bbad"/><circle cx="69.18" cy="212.04" r="7.75" transform="rotate(-71.23 69.173 212.031)" fill="#c4bbad"/><circle cx="158.77" cy="144.59" r="7.75" transform="rotate(-71.23 158.768 144.59)" fill="#c4bbad"/><circle cx="128.89" cy="134.44" r="7.75" transform="rotate(-71.23 128.875 134.436)" fill="#ddd3c7"/><circle cx="99" cy="124.28" r="7.75" transform="rotate(-71.23 99.006 124.278)" fill="#ddd3c7"/><path d="M164.77 162.39l-5 14.67a7.76 7.76 0 015-14.67z" fill="#c4bbad"/><circle cx="132.73" cy="159.69" r="7.75" transform="rotate(-71.23 132.735 159.687)" fill="#c4bbad"/><circle cx="102.85" cy="149.53" r="7.75" transform="rotate(-71.23 102.854 149.53)" fill="#ddd3c7"/><path d="M149.44 207.49l-5 14.67a7.76 7.76 0 015-14.67z" fill="#c4bbad"/><circle cx="117.41" cy="204.79" r="7.75" transform="rotate(-71.23 117.402 204.786)" fill="#c4bbad"/><circle cx="87.52" cy="194.63" r="7.75" transform="rotate(-71.23 87.52 194.63)" fill="#ddd3c7"/><circle cx="143.82" cy="188.61" r="7.75" transform="rotate(-71.23 143.81 188.606)" fill="#c4bbad"/><circle cx="113.93" cy="178.45" r="7.75" transform="rotate(-71.3 113.632 177.852)" fill="#c4bbad"/><circle cx="84.04" cy="168.29" r="7.75" transform="rotate(-71.23 84.04 168.289)" fill="#ddd3c7"/><circle cx="128.95" cy="232.35" r="7.75" transform="rotate(-71.23 128.96 232.352)" fill="#c4bbad"/><circle cx="99.06" cy="222.19" r="7.75" transform="rotate(-71.23 99.06 222.193)" fill="#c4bbad"/><circle cx="69.18" cy="212.04" r="7.75" transform="rotate(-71.23 69.173 212.031)" fill="#ddd3c7"/></g><path d="M140.07 80.89A49.5 49.5 0 10203 50a49.59 49.59 0 00-62.93 30.89z" fill="#ffde83"/><path d="M203 50c.29.1-31.57 93.82-31.85 93.73A49.5 49.5 0 11203 50z" fill="#ffc248"/><circle cx="202.39" cy="104.86" r="6.89" transform="rotate(-71.23 202.372 104.862)" fill="#562f1c"/><circle cx="169.78" cy="93.78" r="6.89" transform="rotate(-71.23 169.785 93.78)" fill="#562f1c"/><path d="M168 111.08a24.13 24.13 0 0011.42 8.17 23.4 23.4 0 0013.81.41c2.22-.68 2.91 2.85.72 3.52a26.36 26.36 0 01-15.69-.52c-5.14-1.83-10-5-13-9.22-1.26-1.87 1.41-4.25 2.74-2.36z" fill="#562f1c"/><g opacity=".4" fill="#f2593b"><circle cx="210.16" cy="125.23" r="7.75" transform="rotate(-71.23 210.158 125.236)"/><circle cx="151.2" cy="105.2" r="7.75" transform="rotate(-71.23 151.192 105.198)"/></g><path d="M142.13 68.93a52.53 52.53 0 0162.32-23.28 51.66 51.66 0 0134.47 56.17z" fill="#723922"/><path d="M142.13 68.93a52.53 52.53 0 0162.32-23.28c.13 0-6.38 18.72-13.55 39.85z" fill="#562f1c"/><path fill="#52c1ae" d="M204.47 45.57l-2.85 8.4 17.21 16.47L228.16 43l-23.69 2.57z"/><path fill="#3f8980" d="M204.47 45.57l-2.85 8.4-23.11 2.77 9.33-27.44 16.63 16.27z"/></g></g></svg>